D:\school\WTK\thesis\model\3dpredictsim\Results\debug\Pog_s1_tmt_bCst_d05_k1000_WL30_ig24_act_TTC_IATx30Tn0P50_GRF.mot
nRows=30
nColumns=19

name D:\school\WTK\thesis\model\3dpredictsim\Results\debug\Pog_s1_tmt_bCst_d05_k1000_WL30_ig24_act_TTC_IATx30Tn0P50_GRF.mot
datacolumns 19
datarows 30
range 0.0000000000 0.3148339542
endheader
time 	ground_force_vx	ground_force_vy	ground_force_vz	ground_force_px	ground_force_py	ground_force_pz	1_ground_force_vx	1_ground_force_vy	1_ground_force_vz	1_ground_force_px	1_ground_force_py	1_ground_force_pz	ground_torque_x	ground_torque_y	ground_torque_z	1_ground_torque_x	1_ground_torque_y	1_ground_torque_z
        0.0000000000	     -137.0212464177	      117.8176454922	       39.4285120378	        0.1275595992	        0.0000000000	        0.0405807389	       63.6162782385	      348.3956300986	       -6.6447596567	       -0.3407750467	        0.0000000000	       -0.0293098862	        0.0000000000	        0.0000000000	        0.0000000000	        0.0000000000	        0.0000000000	        0.0000000000	
        0.0108563432	     -132.6175800996	      248.5402051555	       61.9007420498	        0.1375793401	        0.0000000000	        0.0399906342	       37.1908448653	      263.5017760168	      -13.2835725669	       -0.3330008315	        0.0000000000	       -0.0255733053	        0.0000000000	        0.0000000000	        0.0000000000	        0.0000000000	        0.0000000000	        0.0000000000	
        0.0217126865	      -64.7760662674	      503.1926613992	        6.8960562215	        0.1497311727	        0.0000000000	        0.0414502547	       16.5660950095	      188.2618778397	      -13.6537351849	       -0.3223013981	        0.0000000000	       -0.0195445066	        0.0000000000	        0.0000000000	        0.0000000000	        0.0000000000	        0.0000000000	        0.0000000000	
        0.0325690297	      -78.5211197593	      732.0473325585	      -10.8554610435	        0.1562916290	        0.0000000000	        0.0429210366	        4.5450449805	      152.9638230753	      -12.5517251003	       -0.3187173889	        0.0000000000	       -0.0171224259	        0.0000000000	        0.0000000000	        0.0000000000	        0.0000000000	        0.0000000000	        0.0000000000	
        0.0434253730	      -95.7906526008	      850.6656263759	      -16.6132675755	        0.1614429628	        0.0000000000	        0.0437357641	       -1.7151989282	      118.6873199654	      -11.6710333668	       -0.3186242259	        0.0000000000	       -0.0171116997	        0.0000000000	        0.0000000000	        0.0000000000	        0.0000000000	        0.0000000000	        0.0000000000	
        0.0542817162	     -107.5915332562	      890.5776430802	      -16.2048357193	        0.1665290164	        0.0000000000	        0.0439948655	       -9.6539460710	       76.9734024694	       -9.8544915997	       -0.3187478683	        0.0000000000	       -0.0171003721	        0.0000000000	        0.0000000000	        0.0000000000	        0.0000000000	        0.0000000000	        0.0000000000	
        0.0651380595	     -110.8573437187	      898.6794987553	      -13.2564285481	        0.1714413478	        0.0000000000	        0.0437883364	      -10.8340718357	       27.2532676136	       -4.1463732411	       -0.3192511096	        0.0000000000	       -0.0168821647	        0.0000000000	        0.0000000000	        0.0000000000	        0.0000000000	        0.0000000000	        0.0000000000	
        0.0759944027	     -100.6623097318	      872.5132566852	      -12.5967925825	        0.1764866340	        0.0000000000	        0.0433993523	        0.4713487047	       -0.4702158306	        0.0123067595	        0.0000000000	        0.0000000000	        0.0000000000	        0.0000000000	        0.0000000000	        0.0000000000	        0.0000000000	        0.0000000000	        0.0000000000	
        0.0868507460	      -85.1047438278	      823.2803930367	      -12.7621909450	        0.1801285784	        0.0000000000	        0.0430748796	        0.0126312114	       -0.0103957510	       -0.0005391495	        0.0000000000	        0.0000000000	        0.0000000000	        0.0000000000	        0.0000000000	        0.0000000000	        0.0000000000	        0.0000000000	        0.0000000000	
        0.0977070892	      -70.7378995988	      770.2555084533	      -12.7773541328	        0.1831837741	        0.0000000000	        0.0428903673	        0.0147407280	       -0.0105567092	       -0.0008922649	        0.0000000000	        0.0000000000	        0.0000000000	        0.0000000000	        0.0000000000	        0.0000000000	        0.0000000000	        0.0000000000	        0.0000000000	
        0.1085634325	      -57.9688678981	      723.8772148320	      -13.2466044107	        0.1864803402	        0.0000000000	        0.0428099213	        0.0574922184	       -0.0368855419	       -0.0040514817	        0.0000000000	        0.0000000000	        0.0000000000	        0.0000000000	        0.0000000000	        0.0000000000	        0.0000000000	        0.0000000000	        0.0000000000	
        0.1194197757	      -47.2248291670	      686.2132412773	      -14.7186425695	        0.1906788544	        0.0000000000	        0.0427734944	       -0.3149933901	        0.1851220236	        0.0245462539	        0.0000000000	        0.0000000000	        0.0000000000	        0.0000000000	        0.0000000000	        0.0000000000	        0.0000000000	        0.0000000000	        0.0000000000	
        0.1302761190	      -39.1188872665	      656.5568679549	      -16.0669539159	        0.1957136654	        0.0000000000	        0.0427399205	       -0.3243175732	        0.1774535635	        0.0274000281	        0.0000000000	        0.0000000000	        0.0000000000	        0.0000000000	        0.0000000000	        0.0000000000	        0.0000000000	        0.0000000000	        0.0000000000	
        0.1411324622	      -32.6916364346	      634.1313966883	      -17.3022227424	        0.2014038259	        0.0000000000	        0.0426741394	       -0.2134342544	        0.1095870148	        0.0194558341	        0.0000000000	        0.0000000000	        0.0000000000	        0.0000000000	        0.0000000000	        0.0000000000	        0.0000000000	        0.0000000000	        0.0000000000	
        0.1519888055	      -27.5383874706	      617.3607504597	      -18.3635893634	        0.2076727746	        0.0000000000	        0.0425490940	       -0.1492580194	        0.0724667119	        0.0145042383	        0.0000000000	        0.0000000000	        0.0000000000	        0.0000000000	        0.0000000000	        0.0000000000	        0.0000000000	        0.0000000000	        0.0000000000	
        0.1628451487	      -23.7784359896	      605.0998361696	      -19.1727161543	        0.2142940244	        0.0000000000	        0.0423590639	       -0.1249270029	        0.0577684420	        0.0127642619	        0.0000000000	        0.0000000000	        0.0000000000	        0.0000000000	        0.0000000000	        0.0000000000	        0.0000000000	        0.0000000000	        0.0000000000	
        0.1737014919	      -20.9266330462	      596.5151307980	      -19.5989625849	        0.2210000827	        0.0000000000	        0.0421225078	       -0.1280746036	        0.0567645168	        0.0135769853	        0.0000000000	        0.0000000000	        0.0000000000	        0.0000000000	        0.0000000000	        0.0000000000	        0.0000000000	        0.0000000000	        0.0000000000	
        0.1845578352	      -18.5153479761	      591.0121409812	      -19.7604646627	        0.2277704322	        0.0000000000	        0.0418479649	       -0.1561904695	        0.0667220389	        0.0169665273	        0.0000000000	        0.0000000000	        0.0000000000	        0.0000000000	        0.0000000000	        0.0000000000	        0.0000000000	        0.0000000000	        0.0000000000	
        0.1954141784	      -17.0123794575	      588.0197771905	      -19.5369189120	        0.2344771412	        0.0000000000	        0.0415454052	       -0.2145522794	        0.0887989722	        0.0236004211	        0.0000000000	        0.0000000000	        0.0000000000	        0.0000000000	        0.0000000000	        0.0000000000	        0.0000000000	        0.0000000000	        0.0000000000	
        0.2062705217	      -16.0192200631	      586.8066786988	      -19.0269563242	        0.2409693228	        0.0000000000	        0.0412293312	       -0.3110713378	        0.1253689018	        0.0342515926	        0.0000000000	        0.0000000000	        0.0000000000	        0.0000000000	        0.0000000000	        0.0000000000	        0.0000000000	        0.0000000000	        0.0000000000	
        0.2171268649	      -14.9699173847	      586.4832635090	      -18.5014781325	        0.2472225647	        0.0000000000	        0.0409049639	       -0.4474901809	        0.1765043219	        0.0487737007	        0.0000000000	        0.0000000000	        0.0000000000	        0.0000000000	        0.0000000000	        0.0000000000	        0.0000000000	        0.0000000000	        0.0000000000	
        0.2279832082	      -13.5459947720	      585.6595974513	      -17.8626555397	        0.2531482005	        0.0000000000	        0.0405851791	       -0.6079913027	        0.2358549746	        0.0648758074	        0.0000000000	        0.0000000000	        0.0000000000	        0.0000000000	        0.0000000000	        0.0000000000	        0.0000000000	        0.0000000000	        0.0000000000	
        0.2388395514	      -11.6828024579	      584.3061191954	      -17.4668962249	        0.2588917458	        0.0000000000	        0.0402570545	       -0.7601949744	        0.2913478183	        0.0784894188	        0.0000000000	        0.0000000000	        0.0000000000	        0.0000000000	        0.0000000000	        0.0000000000	        0.0000000000	        0.0000000000	        0.0000000000	
        0.2496958947	       -9.6449167398	      582.3526405285	      -17.2814765860	        0.2645082896	        0.0000000000	        0.0399144634	       -0.8697495747	        0.3306035340	        0.0862900556	        0.0000000000	        0.0000000000	        0.0000000000	        0.0000000000	        0.0000000000	        0.0000000000	        0.0000000000	        0.0000000000	        0.0000000000	
        0.2605522379	       -7.4687191552	      579.8700155522	      -17.1956278609	        0.2700046589	        0.0000000000	        0.0395571456	       -0.9174849696	        0.3469804283	        0.0869404570	        0.0000000000	        0.0000000000	        0.0000000000	        0.0000000000	        0.0000000000	        0.0000000000	        0.0000000000	        0.0000000000	        0.0000000000	
        0.2714085812	       -5.0073233216	      576.7168272006	      -16.8567526272	        0.2753744498	        0.0000000000	        0.0391892933	       -0.9062303587	        0.3418128619	        0.0814643989	        0.0000000000	        0.0000000000	        0.0000000000	        0.0000000000	        0.0000000000	        0.0000000000	        0.0000000000	        0.0000000000	        0.0000000000	
        0.2822649244	       -2.1223801378	      573.0676704807	      -16.3035753924	        0.2806206121	        0.0000000000	        0.0388092488	       -0.8557947811	        0.3225165831	        0.0722163174	        0.0000000000	        0.0000000000	        0.0000000000	        0.0000000000	        0.0000000000	        0.0000000000	        0.0000000000	        0.0000000000	        0.0000000000	
        0.2931212677	        1.4127347805	      569.0534930772	      -15.0168486299	        0.2856916267	        0.0000000000	        0.0384260806	       -0.7903871398	        0.2979675146	        0.0613838020	        0.0000000000	        0.0000000000	        0.0000000000	        0.0000000000	        0.0000000000	        0.0000000000	        0.0000000000	        0.0000000000	        0.0000000000	
        0.3039776109	        5.6129781336	      564.9686203422	      -13.0513173681	        0.2905219344	        0.0000000000	        0.0380431393	       -0.7263357478	        0.2741094464	        0.0501928664	        0.0000000000	        0.0000000000	        0.0000000000	        0.0000000000	        0.0000000000	        0.0000000000	        0.0000000000	        0.0000000000	        0.0000000000	
        0.3148339542	        9.7642833274	      562.1665442569	      -10.7192345370	        0.2949824016	        0.0000000000	        0.0376649148	       -0.6687726307	        0.2527510963	        0.0392696982	        0.0000000000	        0.0000000000	        0.0000000000	        0.0000000000	        0.0000000000	        0.0000000000	        0.0000000000	        0.0000000000	        0.0000000000	
